Coordinates
version=1
nRows=16
nColumns=40
inDegrees=yes

Units are S.I. units (second, meters, Newtons, ...)
If the header above contains a line with 'inDegrees', this indicates whether rotational values are in degrees (yes) or radians (no).

endheader
time	pelvis_tilt	pelvis_list	pelvis_rotation	pelvis_tx	pelvis_ty	pelvis_tz	hip_flexion_r	hip_adduction_r	hip_rotation_r	knee_angle_r	knee_angle_r_beta	ankle_angle_r	subtalar_angle_r	mtp_angle_r	hip_flexion_l	hip_adduction_l	hip_rotation_l	knee_angle_l	knee_angle_l_beta	ankle_angle_l	subtalar_angle_l	mtp_angle_l	lumbar_extension	lumbar_bending	lumbar_rotation	arm_flex_r	arm_add_r	arm_rot_r	elbow_flex_r	pro_sup_r	wrist_flex_r	wrist_dev_r	arm_flex_l	arm_add_l	arm_rot_l	elbow_flex_l	pro_sup_l	wrist_flex_l	wrist_dev_l
      0.21000000	      1.24510174	      9.96443360	    -78.94771413	      0.19419803	      0.95605316	     -0.70607936	     34.81164544	     -5.91412575	    -14.00041849	     -1.70797462	     -0.02980978	      1.36224183	      0.00000000	      0.00000000	     -9.60913333	      2.59656926	     12.54530016	      0.59991532	      0.01047050	     14.14000768	     -0.00000000	     -0.00000000	      0.44399260	     -3.25609958	    -13.78289556	      0.00000000	      0.00000000	      0.00000000	      0.00000000	      0.00000000	      0.00000000	      0.00000000	     -0.00000000	     -0.00000000	     -0.00000000	      0.00000000	      0.00000000	     -0.00000000	      0.00000000
      0.22000000	      1.08047168	     10.30205127	    -78.74741066	      0.19397767	      0.95279451	     -0.68997292	     35.17086769	     -5.70802128	    -13.92605863	     -2.43528993	     -0.04250383	      1.56882983	      0.00000000	      0.00000000	    -10.10638551	      2.22453694	     12.79211664	      0.85276262	      0.01488352	     14.44046962	      0.00000000	      0.00000000	      0.85804128	     -3.14587859	    -13.86557583	      0.00000000	      0.00000000	      0.00000000	      0.00000000	      0.00000000	      0.00000000	      0.00000000	      0.00000000	      0.00000000	      0.00000000	      0.00000000	      0.00000000	      0.00000000	      0.00000000
      0.23000000	      0.79792471	     10.47220861	    -78.59863363	      0.19361976	      0.95008383	     -0.67373218	     35.38093595	     -5.32379382	    -13.91535620	     -2.64474062	     -0.04615943	      1.47305309	     -0.00000000	     -0.00000000	    -10.61710792	      1.72278773	     12.94017758	      1.37558941	      0.02400856	     14.58968711	     -0.00000000	     -0.00000000	      1.08977147	     -2.84866235	    -14.01524856	     -0.00000000	      0.00000000	      0.00000000	      0.00000000	      0.00000000	     -0.00000000	     -0.00000000	      0.00000000	     -0.00000000	      0.00000000	      0.00000000	      0.00000000	      0.00000000	      0.00000000
      0.24000000	      0.46444364	     10.73826993	    -78.56176010	      0.19310207	      0.94759212	     -0.65739290	     35.78101281	     -4.86101602	    -13.85208520	     -2.26005721	     -0.03944544	      1.22336524	      0.00000000	      0.00000000	    -10.92128068	      1.22443913	     12.97644168	      2.06489578	      0.03603923	     14.44026188	      0.00000000	      0.00000000	      1.44763254	     -2.49591791	    -13.99908339	      0.00000000	      0.00000000	      0.00000000	      0.00000000	      0.00000000	      0.00000000	      0.00000000	      0.00000000	      0.00000000	      0.00000000	      0.00000000	      0.00000000	      0.00000000	      0.00000000
      0.25000000	      0.02934958	     10.91701988	    -78.55696900	      0.19247155	      0.94559028	     -0.64078916	     36.09072646	     -4.26393622	    -14.00758677	     -1.51424586	     -0.02642858	      0.58868622	      0.00000000	     -0.00000000	    -11.17411152	      0.62656744	     12.82655243	      2.96793429	      0.05180023	     14.17334425	      0.00000000	     -0.00000000	      1.74905062	     -2.00768357	    -13.94185978	     -0.00000000	     -0.00000000	      0.00000000	      0.00000000	      0.00000000	      0.00000000	     -0.00000000	     -0.00000000	      0.00000000	     -0.00000000	      0.00000000	      0.00000000	      0.00000000	      0.00000000
      0.26000000	     -0.44033808	     11.05646901	    -78.62801922	      0.19174871	      0.94405609	     -0.62405637	     36.39797221	     -3.60522421	    -14.12108970	     -0.39736832	     -0.00693539	     -0.32660339	      0.00000000	      0.00000000	    -11.31934610	      0.03057233	     12.58425855	      4.11023068	      0.07173706	     13.62117933	      0.00000000	      0.00000000	      2.01717722	     -1.45352546	    -13.82625406	      0.00000000	      0.00000000	      0.00000000	      0.00000000	      0.00000000	      0.00000000	      0.00000000	      0.00000000	      0.00000000	      0.00000000	      0.00000000	      0.00000000	      0.00000000	      0.00000000
      0.27000000	     -0.94619518	     11.15746543	    -78.77728589	      0.19089805	      0.94298520	     -0.60716270	     36.69569277	     -2.88351580	    -14.27774516	      0.98387573	      0.01717187	     -1.54652435	      0.00000000	      0.00000000	    -11.34181365	     -0.56930331	     12.16354871	      5.50483510	      0.09607750	     12.80435716	      0.00000000	      0.00000000	      2.25263832	     -0.84731459	    -13.61468267	      0.00000000	      0.00000000	      0.00000000	      0.00000000	      0.00000000	      0.00000000	      0.00000000	      0.00000000	      0.00000000	      0.00000000	      0.00000000	      0.00000000	      0.00000000	      0.00000000
      0.28000000	     -1.48229938	     11.18910844	    -78.97000280	      0.19002296	      0.94246945	     -0.59014895	     36.91202049	     -2.13176881	    -14.37224149	      2.52295389	      0.04403385	     -2.96513919	      0.00000000	      0.00000000	    -11.19665341	     -1.16025522	     11.61139981	      7.27154290	      0.12691237	     11.66313858	     -0.00000000	      0.00000000	      2.42589251	     -0.16973067	    -13.37544574	     -0.00000000	      0.00000000	     -0.00000000	      0.00000000	      0.00000000	      0.00000000	     -0.00000000	     -0.00000000	      0.00000000	      0.00000000	      0.00000000	      0.00000000	      0.00000000	      0.00000000
      0.29000000	     -2.00126478	     11.12818962	    -79.23885524	      0.18901964	      0.94251583	     -0.57305226	     37.02326808	     -1.36447423	    -14.36112837	      4.15464742	      0.07251228	     -4.40479782	      0.00000000	      0.00000000	    -10.93363535	     -1.70782306	     11.00152738	      9.37481875	      0.16362145	     10.19858357	      0.00000000	      0.00000000	      2.46686052	      0.49111427	    -13.09285998	      0.00000000	      0.00000000	      0.00000000	      0.00000000	      0.00000000	      0.00000000	      0.00000000	      0.00000000	      0.00000000	      0.00000000	      0.00000000	      0.00000000	      0.00000000	      0.00000000
      0.30000000	     -2.60100977	     11.06129218	    -79.52185118	      0.18807340	      0.94296779	     -0.55585253	     37.09498880	     -0.55460182	    -14.33337388	      5.80079075	      0.10124290	     -5.97779709	      0.00000000	      0.00000000	    -10.36889701	     -2.32544985	     10.01343899	     11.91034544	      0.20787474	      8.32441746	      0.00000000	      0.00000000	      2.55362870	      1.29450843	    -12.71333129	      0.00000000	      0.00000000	      0.00000000	      0.00000000	      0.00000000	      0.00000000	      0.00000000	      0.00000000	      0.00000000	      0.00000000	      0.00000000	      0.00000000	      0.00000000	      0.00000000
      0.31000000	     -3.09888343	     10.83333126	    -79.83483465	      0.18711045	      0.94406021	     -0.53872143	     36.94966924	      0.17337935	    -14.13831165	      7.44971048	      0.13002198	     -7.19483836	      0.00000000	      0.00000000	     -9.70617883	     -2.83956201	      9.15174837	     14.85054836	      0.25919096	      6.09837874	      0.00000000	      0.00000000	      2.39811493	      1.98793607	    -12.33688204	      0.00000000	      0.00000000	      0.00000000	      0.00000000	      0.00000000	      0.00000000	      0.00000000	      0.00000000	      0.00000000	      0.00000000	      0.00000000	      0.00000000	      0.00000000	      0.00000000
      0.32000000	     -3.77386127	     10.69859914	    -80.19762367	      0.18592759	      0.94532018	     -0.52157998	     36.87307588	      1.08871987	    -13.79667627	      9.04780264	      0.15791395	     -8.29915510	      0.00000000	      0.00000000	     -8.64653543	     -3.54434556	      8.07782428	     18.15743378	      0.31690700	      3.43714650	      0.00000000	      0.00000000	      2.39008814	      2.86817046	    -11.87639877	      0.00000000	      0.00000000	      0.00000000	      0.00000000	      0.00000000	      0.00000000	      0.00000000	      0.00000000	      0.00000000	      0.00000000	      0.00000000	      0.00000000	      0.00000000	      0.00000000
      0.33000000	     -4.35314643	     10.41730208	    -80.55210787	      0.18482084	      0.94707012	     -0.50460009	     36.57255756	      1.91485150	    -13.38757998	     10.59506488	      0.18491877	     -8.94469890	      0.00000000	      0.00000000	     -7.47476699	     -4.18170956	      7.14942881	     21.81593987	      0.38075998	      0.41712269	      0.00000000	      0.00000000	      2.16554084	      3.65268191	    -11.43540586	      0.00000000	      0.00000000	      0.00000000	      0.00000000	      0.00000000	      0.00000000	      0.00000000	      0.00000000	      0.00000000	      0.00000000	      0.00000000	      0.00000000	      0.00000000	      0.00000000
      0.34000000	     -4.93910990	     10.14697118	    -80.89016166	      0.18367607	      0.94903638	     -0.48783442	     36.21489472	      2.75305387	    -12.87021744	     12.04550856	      0.21023378	     -9.23455912	      0.00000000	      0.00000000	     -6.03353024	     -4.83715594	      6.38152544	     25.75886678	      0.44957704	     -2.85964857	      0.00000000	      0.00000000	      1.93612472	      4.42440630	    -10.97089298	      0.00000000	      0.00000000	      0.00000000	      0.00000000	      0.00000000	      0.00000000	      0.00000000	      0.00000000	      0.00000000	      0.00000000	      0.00000000	      0.00000000	      0.00000000	      0.00000000
      0.35000000	     -5.49217526	      9.75785975	    -81.21635396	      0.18256822	      0.95133085	     -0.47124323	     35.64203098	      3.58389580	    -12.36766556	     13.38168221	      0.23355441	     -9.13595573	      0.00000000	      0.00000000	     -4.54992194	     -5.49148336	      5.77864163	     29.81301847	      0.52033533	     -6.35075213	      0.00000000	      0.00000000	      1.54305239	      5.16473564	    -10.52327732	      0.00000000	      0.00000000	      0.00000000	      0.00000000	      0.00000000	      0.00000000	      0.00000000	      0.00000000	      0.00000000	      0.00000000	      0.00000000	      0.00000000	      0.00000000	      0.00000000
      0.36000000	     -6.02474982	      9.39558907	    -81.51891037	      0.18144509	      0.95372736	     -0.45494222	     34.99663692	      4.40994306	    -11.84292910	     14.55624645	      0.25405443	     -8.73809819	     -0.00000000	      0.00000000	     -2.87745036	     -6.11264793	      5.40121746	     33.93488233	      0.59227543	     -9.84614873	      0.00000000	      0.00000000	      1.16219884	      5.85565908	    -10.06885471	      0.00000000	     -0.00000000	     -0.00000000	      0.00000000	      0.00000000	     -0.00000000	     -0.00000000	      0.00000000	      0.00000000	      0.00000000	      0.00000000	      0.00000000	      0.00000000	     -0.00000000
